<svg width="205" height="46" viewBox="0 0 205 46" fill="none" xmlns="http://www.w3.org/2000/svg">
<path d="M22.9997 0C35.7026 0 45.9997 10.2971 45.9997 23V39.1C45.9997 40.93 45.2728 42.685 43.9788 43.979C42.6848 45.273 40.9297 46 39.0997 46H24.1497V35.9099C24.1497 33.6076 24.29 31.2225 25.4975 29.2629C26.362 27.8586 27.5185 26.6566 28.8884 25.7385C30.2583 24.8204 31.8096 24.2077 33.4371 23.9419L33.8776 23.8706C34.0592 23.8085 34.2168 23.6912 34.3284 23.5351C34.44 23.379 34.5 23.1919 34.5 23C34.5 22.8081 34.44 22.621 34.3284 22.4649C34.2168 22.3088 34.0592 22.1915 33.8776 22.1294L33.4371 22.0581C31.0591 21.6697 28.8632 20.5441 27.1594 18.8403C25.4556 17.1365 24.3301 14.9406 23.9416 12.5626L23.8703 12.1222C23.8082 11.9406 23.6909 11.7829 23.5348 11.6713C23.3787 11.5597 23.1916 11.4997 22.9997 11.4997C22.8078 11.4997 22.6208 11.5597 22.4647 11.6713C22.3086 11.7829 22.1913 11.9406 22.1292 12.1222L22.0579 12.5626C21.7922 14.1902 21.1795 15.7415 20.2614 17.1114C19.3433 18.4814 18.1412 19.6378 16.7368 20.5022C14.7772 21.7097 12.3921 21.85 10.0898 21.85H0.0273438C0.628794 9.68185 10.6832 0 22.9997 0Z" fill="#5F6FFF"/>
<path d="M0 24.15H10.0901C12.3924 24.15 14.7775 24.2903 16.7371 25.4978C18.2689 26.4417 19.5583 27.7311 20.5022 29.2629C21.7097 31.2225 21.85 33.6076 21.85 35.9099V46H6.9C5.07001 46 3.31496 45.273 2.02096 43.979C0.726962 42.685 0 40.93 0 39.1L0 24.15ZM46 2.3C46 2.91 45.7577 3.49501 45.3263 3.92635C44.895 4.35768 44.31 4.6 43.7 4.6C43.09 4.6 42.505 4.35768 42.0737 3.92635C41.6423 3.49501 41.4 2.91 41.4 2.3C41.4 1.69 41.6423 1.10499 42.0737 0.673654C42.505 0.242321 43.09 0 43.7 0C44.31 0 44.895 0.242321 45.3263 0.673654C45.7577 1.10499 46 1.69 46 2.3Z" fill="#5F6FFF"/>
<path d="M59.448 37V13.098H62.712L72.402 28.602H70.532L80.188 13.098H83.452V37H78.862V21.02L79.746 21.292L73.014 32.104H69.886L63.154 21.292L64.072 21.02V37H59.448ZM95.7127 37.34C93.9901 37.34 92.4601 36.9773 91.1227 36.252C89.7854 35.504 88.7201 34.484 87.9267 33.192C87.1561 31.9 86.7707 30.4267 86.7707 28.772C86.7707 27.14 87.1447 25.6893 87.8927 24.42C88.6634 23.128 89.7061 22.108 91.0207 21.36C92.3354 20.5893 93.7974 20.204 95.4067 20.204C96.9934 20.204 98.3874 20.5667 99.5887 21.292C100.813 21.9947 101.765 22.9693 102.445 24.216C103.147 25.44 103.499 26.834 103.499 28.398C103.499 28.6927 103.476 28.9987 103.431 29.316C103.408 29.6107 103.351 29.9507 103.261 30.336L89.4567 30.37V27.038L101.187 27.004L99.3847 28.398C99.3394 27.4233 99.1581 26.6073 98.8407 25.95C98.5461 25.2927 98.1041 24.794 97.5147 24.454C96.9481 24.0913 96.2454 23.91 95.4067 23.91C94.5227 23.91 93.7521 24.114 93.0947 24.522C92.4374 24.9073 91.9274 25.4627 91.5647 26.188C91.2247 26.8907 91.0547 27.7293 91.0547 28.704C91.0547 29.7013 91.2361 30.574 91.5987 31.322C91.9841 32.0473 92.5281 32.614 93.2307 33.022C93.9334 33.4073 94.7494 33.6 95.6787 33.6C96.5174 33.6 97.2767 33.464 97.9567 33.192C98.6367 32.8973 99.2261 32.4667 99.7247 31.9L102.343 34.518C101.549 35.4473 100.575 36.15 99.4187 36.626C98.2854 37.102 97.0501 37.34 95.7127 37.34ZM113.189 37.34C111.671 37.34 110.311 36.966 109.109 36.218C107.908 35.47 106.956 34.45 106.253 33.158C105.573 31.866 105.233 30.4153 105.233 28.806C105.233 27.174 105.573 25.712 106.253 24.42C106.956 23.128 107.897 22.108 109.075 21.36C110.277 20.612 111.648 20.238 113.189 20.238C114.368 20.238 115.422 20.476 116.351 20.952C117.303 21.428 118.063 22.0967 118.629 22.958C119.219 23.7967 119.536 24.7487 119.581 25.814V31.662C119.536 32.7273 119.23 33.6907 118.663 34.552C118.097 35.4133 117.337 36.0933 116.385 36.592C115.433 37.0907 114.368 37.34 113.189 37.34ZM113.937 33.226C114.776 33.226 115.501 33.0447 116.113 32.682C116.748 32.2967 117.235 31.7753 117.575 31.118C117.938 30.438 118.119 29.656 118.119 28.772C118.119 27.9107 117.938 27.1513 117.575 26.494C117.235 25.814 116.748 25.2927 116.113 24.93C115.501 24.5447 114.787 24.352 113.971 24.352C113.133 24.352 112.396 24.5447 111.761 24.93C111.149 25.3153 110.662 25.8367 110.299 26.494C109.959 27.1513 109.789 27.9107 109.789 28.772C109.789 29.656 109.959 30.438 110.299 31.118C110.662 31.7753 111.161 32.2967 111.795 32.682C112.43 33.0447 113.144 33.226 113.937 33.226ZM122.301 37H117.881V32.58L118.595 28.568L117.847 24.624V12.418H122.301V37ZM126.242 37V20.578H130.73V37H126.242ZM128.486 17.926C127.76 17.926 127.16 17.688 126.684 17.212C126.208 16.7133 125.97 16.1013 125.97 15.376C125.97 14.6733 126.208 14.0727 126.684 13.574C127.16 13.0753 127.76 12.826 128.486 12.826C129.234 12.826 129.834 13.0753 130.288 13.574C130.764 14.0727 131.002 14.6733 131.002 15.376C131.002 16.1013 130.764 16.7133 130.288 17.212C129.834 17.688 129.234 17.926 128.486 17.926ZM142.087 37.34C140.16 37.34 138.506 37.0113 137.123 36.354C135.763 35.6967 134.528 34.7107 133.417 33.396L136.477 30.336C137.18 31.2653 137.996 31.9907 138.925 32.512C139.854 33.0107 140.988 33.26 142.325 33.26C143.526 33.26 144.478 33.022 145.181 32.546C145.906 32.07 146.269 31.4127 146.269 30.574C146.269 29.8487 146.065 29.2593 145.657 28.806C145.249 28.3527 144.705 27.9673 144.025 27.65C143.368 27.3327 142.631 27.0493 141.815 26.8C141.022 26.528 140.217 26.222 139.401 25.882C138.608 25.542 137.871 25.1227 137.191 24.624C136.534 24.1027 136.001 23.4453 135.593 22.652C135.185 21.836 134.981 20.816 134.981 19.592C134.981 18.1413 135.332 16.906 136.035 15.886C136.738 14.866 137.701 14.084 138.925 13.54C140.149 12.996 141.532 12.724 143.073 12.724C144.705 12.724 146.178 13.03 147.493 13.642C148.808 14.254 149.884 15.0473 150.723 16.022L147.663 19.082C146.96 18.3113 146.235 17.7447 145.487 17.382C144.762 17.0193 143.934 16.838 143.005 16.838C141.94 16.838 141.101 17.042 140.489 17.45C139.877 17.858 139.571 18.4473 139.571 19.218C139.571 19.8753 139.775 20.408 140.183 20.816C140.591 21.224 141.124 21.5753 141.781 21.87C142.461 22.1647 143.198 22.448 143.991 22.72C144.807 22.992 145.612 23.298 146.405 23.638C147.221 23.978 147.958 24.42 148.615 24.964C149.295 25.508 149.839 26.2107 150.247 27.072C150.655 27.9107 150.859 28.9533 150.859 30.2C150.859 32.4213 150.077 34.1667 148.513 35.436C146.949 36.7053 144.807 37.34 142.087 37.34ZM158.769 37.136L151.901 20.578H156.729L161.285 33.226H159.653L164.379 20.578H169.241L161.931 37.136H158.769ZM154.213 43.868L159.211 33.294L161.931 37.136L158.939 43.868H154.213ZM182.149 37V27.582C182.149 26.6073 181.843 25.814 181.231 25.202C180.619 24.59 179.826 24.284 178.851 24.284C178.216 24.284 177.65 24.42 177.151 24.692C176.652 24.964 176.256 25.3493 175.961 25.848C175.689 26.3467 175.553 26.9247 175.553 27.582L173.819 26.698C173.819 25.406 174.091 24.284 174.635 23.332C175.202 22.3573 175.972 21.598 176.947 21.054C177.944 20.51 179.066 20.238 180.313 20.238C181.514 20.238 182.591 20.544 183.543 21.156C184.495 21.7453 185.243 22.5273 185.787 23.502C186.331 24.454 186.603 25.4853 186.603 26.596V37H182.149ZM171.099 37V20.578H175.553V37H171.099ZM197.943 37.34C196.265 37.34 194.758 36.966 193.421 36.218C192.083 35.47 191.029 34.45 190.259 33.158C189.488 31.866 189.103 30.4153 189.103 28.806C189.103 27.174 189.488 25.712 190.259 24.42C191.029 23.128 192.083 22.108 193.421 21.36C194.781 20.5893 196.288 20.204 197.943 20.204C199.235 20.204 200.425 20.442 201.513 20.918C202.601 21.394 203.541 22.074 204.335 22.958L201.479 25.848C201.048 25.372 200.527 25.0093 199.915 24.76C199.325 24.5107 198.668 24.386 197.943 24.386C197.127 24.386 196.39 24.5787 195.733 24.964C195.098 25.3267 194.588 25.8367 194.203 26.494C193.84 27.1287 193.659 27.888 193.659 28.772C193.659 29.6333 193.84 30.404 194.203 31.084C194.588 31.7413 195.098 32.2627 195.733 32.648C196.39 33.0107 197.127 33.192 197.943 33.192C198.691 33.192 199.359 33.0673 199.949 32.818C200.561 32.546 201.082 32.1607 201.513 31.662L204.403 34.552C203.564 35.4587 202.601 36.15 201.513 36.626C200.425 37.102 199.235 37.34 197.943 37.34Z" fill="#000B6D"/>
</svg>
